HIERARCHY
ROOT Hips
{
	OFFSET 0.000000 100.481300 0.000000
	CHANNELS 6 Xposition Yposition Zposition Xrotation Yrotation Zrotation
	JOINT Spine
	{
		OFFSET -0.279200 12.230698 -2.892100
		CHANNELS 3 Xrotation Yrotation Zrotation
		JOINT Spine1
		{
			OFFSET -0.325700 14.269203 -3.374200
			CHANNELS 3 Xrotation Yrotation Zrotation
			JOINT Spine2
			{
				OFFSET -0.372300 16.307602 -0.352600
				CHANNELS 3 Xrotation Yrotation Zrotation
				JOINT Neck
				{
					OFFSET -0.418800 17.814194 8.416900
					CHANNELS 3 Xrotation Yrotation Zrotation
					JOINT Head
					{
						OFFSET 0.000000 7.031097 3.806800
						CHANNELS 3 Xrotation Yrotation Zrotation
						JOINT HeadTop_End
						{
							OFFSET 0.000000 24.646606 12.978600
							CHANNELS 3 Xrotation Yrotation Zrotation
							End Site
							{
								OFFSET 0.000000 27.854965 0.000000
							}
						}
					}
				}
				JOINT LeftShoulder
				{
					OFFSET 16.952999 14.495407 -7.737500
					CHANNELS 3 Xrotation Yrotation Zrotation
					JOINT LeftArm
					{
						OFFSET 9.308998 -2.777710 0.208600
						CHANNELS 3 Xrotation Yrotation Zrotation
						JOINT LeftForeArm
						{
							OFFSET 29.972298 0.000000 0.000000
							CHANNELS 3 Xrotation Yrotation Zrotation
							JOINT LeftHand
							{
								OFFSET 26.026505 0.000000 0.000000
								CHANNELS 3 Xrotation Yrotation Zrotation
								JOINT LeftHandThumb1
								{
									OFFSET 12.240501 -7.147949 9.207150
									CHANNELS 3 Xrotation Yrotation Zrotation
									JOINT LeftHandThumb2
									{
										OFFSET 4.138618 -2.389435 2.389433
										CHANNELS 3 Xrotation Yrotation Zrotation
										JOINT LeftHandThumb3
										{
											OFFSET 2.726913 -1.574387 1.574386
											CHANNELS 3 Xrotation Yrotation Zrotation
											JOINT LeftHandThumb4
											{
												OFFSET 3.941010 -2.275345 2.275342
												CHANNELS 3 Xrotation Yrotation Zrotation
												End Site
												{
													OFFSET -0.005798 5.087799 0.009903
												}
											}
										}
									}
								}
								JOINT LeftHandIndex1
								{
									OFFSET 24.424698 -1.985611 5.953459
									CHANNELS 3 Xrotation Yrotation Zrotation
									JOINT LeftHandIndex2
									{
										OFFSET 6.426697 0.000000 0.000000
										CHANNELS 3 Xrotation Yrotation Zrotation
										JOINT LeftHandIndex3
										{
											OFFSET 5.337898 0.000000 0.000000
											CHANNELS 3 Xrotation Yrotation Zrotation
											JOINT LeftHandIndex4
											{
												OFFSET 4.409401 0.000000 0.000000
												CHANNELS 3 Xrotation Yrotation Zrotation
												End Site
												{
													OFFSET 0.000000 4.409363 0.014373
												}
											}
										}
									}
								}
								JOINT LeftHandMiddle1
								{
									OFFSET 23.810104 0.000000 0.000000
									CHANNELS 3 Xrotation Yrotation Zrotation
									JOINT LeftHandMiddle2
									{
										OFFSET 7.176498 0.000000 0.000000
										CHANNELS 3 Xrotation Yrotation Zrotation
										JOINT LeftHandMiddle3
										{
											OFFSET 6.774902 0.000000 0.000000
											CHANNELS 3 Xrotation Yrotation Zrotation
											JOINT LeftHandMiddle4
											{
												OFFSET 5.403328 0.000000 0.000000
												CHANNELS 3 Xrotation Yrotation Zrotation
												End Site
												{
													OFFSET -0.027702 5.403244 0.017414
												}
											}
										}
									}
								}
								JOINT LeftHandRing1
								{
									OFFSET 22.908401 -0.839279 -6.020567
									CHANNELS 3 Xrotation Yrotation Zrotation
									JOINT LeftHandRing2
									{
										OFFSET 6.337502 0.000000 0.000000
										CHANNELS 3 Xrotation Yrotation Zrotation
										JOINT LeftHandRing3
										{
											OFFSET 5.779297 0.000000 0.000000
											CHANNELS 3 Xrotation Yrotation Zrotation
											JOINT LeftHandRing4
											{
												OFFSET 4.965698 0.000000 0.000000
												CHANNELS 3 Xrotation Yrotation Zrotation
												End Site
												{
													OFFSET 0.000000 4.965668 0.016186
												}
											}
										}
									}
								}
								JOINT LeftHandPinky1
								{
									OFFSET 20.037003 -1.530319 -10.950146
									CHANNELS 3 Xrotation Yrotation Zrotation
									JOINT LeftHandPinky2
									{
										OFFSET 5.254700 0.000000 0.000000
										CHANNELS 3 Xrotation Yrotation Zrotation
										JOINT LeftHandPinky3
										{
											OFFSET 4.810204 0.000000 0.000000
											CHANNELS 3 Xrotation Yrotation Zrotation
											JOINT LeftHandPinky4
											{
												OFFSET 3.647202 0.000000 0.000000
												CHANNELS 3 Xrotation Yrotation Zrotation
												End Site
												{
													OFFSET 0.000000 3.647186 0.011889
												}
											}
										}
									}
								}
							}
						}
					}
				}
				JOINT RightShoulder
				{
					OFFSET -15.141001 14.495407 -7.737500
					CHANNELS 3 Xrotation Yrotation Zrotation
					JOINT RightArm
					{
						OFFSET -9.308998 -2.777710 0.208500
						CHANNELS 3 Xrotation Yrotation Zrotation
						JOINT RightForeArm
						{
							OFFSET -29.972300 0.000000 0.000000
							CHANNELS 3 Xrotation Yrotation Zrotation
							JOINT RightHand
							{
								OFFSET -26.026505 0.000000 0.000000
								CHANNELS 3 Xrotation Yrotation Zrotation
								JOINT RightHandThumb1
								{
									OFFSET -12.240601 -7.148026 9.207092
									CHANNELS 3 Xrotation Yrotation Zrotation
									JOINT RightHandThumb2
									{
										OFFSET -4.138618 -2.389435 2.389433
										CHANNELS 3 Xrotation Yrotation Zrotation
										JOINT RightHandThumb3
										{
											OFFSET -2.726974 -1.574417 1.574421
											CHANNELS 3 Xrotation Yrotation Zrotation
											JOINT RightHandThumb4
											{
												OFFSET -3.941010 -2.275345 2.275343
												CHANNELS 3 Xrotation Yrotation Zrotation
												End Site
												{
													OFFSET 0.005814 5.087799 0.009927
												}
											}
										}
									}
								}
								JOINT RightHandIndex1
								{
									OFFSET -24.424698 -1.985657 5.953444
									CHANNELS 3 Xrotation Yrotation Zrotation
									JOINT RightHandIndex2
									{
										OFFSET -6.426697 0.000000 0.000000
										CHANNELS 3 Xrotation Yrotation Zrotation
										JOINT RightHandIndex3
										{
											OFFSET -5.337898 0.000000 0.000000
											CHANNELS 3 Xrotation Yrotation Zrotation
											JOINT RightHandIndex4
											{
												OFFSET -4.409401 0.000000 0.000000
												CHANNELS 3 Xrotation Yrotation Zrotation
												End Site
												{
													OFFSET 0.000000 4.409363 0.014408
												}
											}
										}
									}
								}
								JOINT RightHandMiddle1
								{
									OFFSET -23.810097 0.000000 0.000000
									CHANNELS 3 Xrotation Yrotation Zrotation
									JOINT RightHandMiddle2
									{
										OFFSET -7.176498 0.000000 0.000000
										CHANNELS 3 Xrotation Yrotation Zrotation
										JOINT RightHandMiddle3
										{
											OFFSET -6.774902 0.000000 0.000000
											CHANNELS 3 Xrotation Yrotation Zrotation
											JOINT RightHandMiddle4
											{
												OFFSET -5.403328 0.000000 0.000000
												CHANNELS 3 Xrotation Yrotation Zrotation
												End Site
												{
													OFFSET 0.027702 5.403244 0.017457
												}
											}
										}
									}
								}
								JOINT RightHandRing1
								{
									OFFSET -22.908302 -0.839325 -6.020576
									CHANNELS 3 Xrotation Yrotation Zrotation
									JOINT RightHandRing2
									{
										OFFSET -6.337502 0.000000 0.000000
										CHANNELS 3 Xrotation Yrotation Zrotation
										JOINT RightHandRing3
										{
											OFFSET -5.779297 0.000000 0.000000
											CHANNELS 3 Xrotation Yrotation Zrotation
											JOINT RightHandRing4
											{
												OFFSET -4.965698 0.000000 0.000000
												CHANNELS 3 Xrotation Yrotation Zrotation
												End Site
												{
													OFFSET 0.000000 4.965668 0.016226
												}
											}
										}
									}
								}
								JOINT RightHandPinky1
								{
									OFFSET -20.037003 -1.530334 -10.950259
									CHANNELS 3 Xrotation Yrotation Zrotation
									JOINT RightHandPinky2
									{
										OFFSET -5.254700 0.000000 0.000000
										CHANNELS 3 Xrotation Yrotation Zrotation
										JOINT RightHandPinky3
										{
											OFFSET -4.810204 0.000000 0.000000
											CHANNELS 3 Xrotation Yrotation Zrotation
											JOINT RightHandPinky4
											{
												OFFSET -3.647202 0.000000 0.000000
												CHANNELS 3 Xrotation Yrotation Zrotation
												End Site
												{
													OFFSET 0.000000 3.647186 0.011917
												}
											}
										}
									}
								}
							}
						}
					}
				}
			}
		}
	}
	JOINT LeftUpLeg
	{
		OFFSET 15.427100 -6.655098 0.678600
		CHANNELS 3 Xrotation Yrotation Zrotation
		JOINT LeftLeg
		{
			OFFSET 4.081073 -39.591068 13.024000
			CHANNELS 3 Xrotation Yrotation Zrotation
			JOINT LeftFoot
			{
				OFFSET -4.081074 -37.707932 -15.979700
				CHANNELS 3 Xrotation Yrotation Zrotation
				JOINT LeftToeBase
				{
					OFFSET 5.346399 -15.068900 20.645000
					CHANNELS 3 Xrotation Yrotation Zrotation
					JOINT LeftToe_End
					{
						OFFSET 2.754700 0.931300 11.300900
						CHANNELS 3 Xrotation Yrotation Zrotation
						End Site
						{
							OFFSET 0.000000 11.669021 0.000000
						}
					}
				}
			}
		}
	}
	JOINT RightUpLeg
	{
		OFFSET -15.569500 -6.655098 0.678600
		CHANNELS 3 Xrotation Yrotation Zrotation
		JOINT RightLeg
		{
			OFFSET -4.081825 -39.591045 13.023800
			CHANNELS 3 Xrotation Yrotation Zrotation
			JOINT RightFoot
			{
				OFFSET 4.081824 -37.707954 -15.979600
				CHANNELS 3 Xrotation Yrotation Zrotation
				JOINT RightToeBase
				{
					OFFSET -5.346400 -15.068900 20.645000
					CHANNELS 3 Xrotation Yrotation Zrotation
					JOINT RightToe_End
					{
						OFFSET -2.754700 0.931300 11.300900
						CHANNELS 3 Xrotation Yrotation Zrotation
						End Site
						{
							OFFSET 0.000000 11.669021 0.000000
						}
					}
				}
			}
		}
	}
}
MOTION
Frames: 4
Frame Time: 0.033333
13.554679 67.833321 15.983934 27.530503 -12.337198 1.565011 9.335225 -0.858524 0.929006 18.663415 -1.972391 0.947373 18.663417 -1.972390 0.947373 7.625639 0.836302 -2.568344 6.085892 2.137211 11.741263 -0.000000 0.000000 0.000001 -0.187471 -12.148458 -16.035744 -54.911746 -35.640456 -56.952296 0.015673 -30.393478 0.047536 18.398037 1.964343 -7.295494 -5.409912 3.562156 6.360345 4.645896 10.456939 1.315193 0.000009 -0.000010 0.000001 -0.000003 -0.000001 0.000000 -3.506283 -4.308982 -24.804746 0.157295 0.916946 -27.370974 -0.000001 -0.000004 0.000004 0.000001 -0.000001 -0.000002 -0.186952 4.269115 -23.490984 -0.432144 -1.715717 -22.086959 0.000001 -0.000007 0.000010 0.000001 -0.000004 0.000001 0.890710 7.566507 -32.135678 -0.741628 -3.332234 -28.993989 -0.000003 0.000005 -0.000001 0.000001 -0.000001 0.000000 -1.319363 6.880137 -23.411641 -1.322847 -6.381694 -28.925339 0.000001 0.000001 0.000003 0.000001 -0.000001 0.000001 0.954736 15.715702 3.826994 -41.340003 21.039650 51.144829 0.028714 37.316756 -0.092702 32.247355 3.485256 13.590675 -4.103380 -0.916382 -11.346262 -1.273482 -0.365927 -1.490483 0.000013 0.000022 -0.000005 -0.000002 -0.000001 0.000001 -0.846822 -4.629406 0.030433 0.163177 -1.236874 20.168343 -0.000003 0.000000 -0.000002 0.000000 0.000000 -0.000002 0.359676 -7.310698 14.909606 -0.537432 1.505697 26.515050 -0.000000 0.000005 -0.000001 -0.000000 0.000002 -0.000001 3.525670 -11.190720 22.465377 -1.898288 4.927346 40.327896 0.000002 -0.000002 0.000002 0.000001 -0.000001 0.000002 1.966929 -16.115381 28.348176 -4.590775 10.423428 49.207340 -0.000000 -0.000001 -0.000001 -0.000001 -0.000003 0.000000 -66.747880 3.616537 1.418999 73.613211 -1.043480 -2.659334 -35.923161 11.355775 8.440470 -7.762681 -0.039487 0.079314 -0.000000 0.000001 0.000000 -82.374533 -9.558407 -4.236812 66.245930 -2.767386 0.809468 -10.877654 3.109798 1.338170 -0.975309 -0.107935 0.259488 -0.000000 -0.000001 -0.000000 
13.488652 70.523788 15.612350 26.657025 -11.622646 0.134376 8.915309 -0.868319 0.845506 17.822426 -2.089968 0.789047 17.822404 -2.089964 0.789046 7.678464 0.869047 -2.462594 7.847782 1.566888 12.588044 0.000000 -0.000000 0.000001 -0.270580 -12.368745 -16.752839 -51.024925 -33.688604 -55.296307 0.009466 -29.722330 0.043559 16.762836 3.678047 -7.418111 -5.008346 4.191181 6.661011 4.624918 10.413392 1.313820 0.000006 -0.000011 0.000001 0.000001 -0.000000 0.000000 -3.519307 -4.243094 -25.475795 0.160376 0.919343 -27.559608 -0.000002 -0.000001 0.000001 0.000000 0.000001 -0.000001 -0.204202 4.117416 -24.028971 -0.438368 -1.727295 -22.344626 0.000002 -0.000008 0.000007 -0.000002 0.000003 0.000005 0.872795 7.494434 -32.371716 -0.747540 -3.334584 -29.131214 -0.000003 0.000006 -0.000007 0.000000 -0.000001 0.000001 -1.406277 6.667779 -23.554698 -1.327341 -6.393942 -29.108747 0.000003 0.000002 0.000000 0.000001 -0.000002 -0.000002 1.001485 15.552303 3.705415 -39.544101 21.003704 53.115765 0.024648 37.322100 -0.090768 33.968911 3.627639 14.398432 -3.945222 -1.347174 -11.181074 -1.274219 -0.366698 -1.488183 0.000011 0.000022 -0.000008 0.000001 0.000001 -0.000002 -0.837488 -4.848093 -0.065754 0.156830 -1.226733 19.878547 0.000000 0.000000 -0.000001 0.000000 0.000000 -0.000000 0.375418 -7.448040 14.657384 -0.524475 1.481011 26.124927 0.000002 0.000005 -0.000002 0.000002 -0.000001 0.000001 3.471671 -11.153141 22.256781 -1.843162 4.876085 39.733645 -0.000001 -0.000000 -0.000001 -0.000002 -0.000003 0.000004 1.964866 -16.267808 28.037317 -4.562188 10.414191 49.114517 -0.000001 0.000002 -0.000002 0.000001 0.000002 -0.000001 -64.629798 3.353077 2.730080 69.586753 -1.057793 -2.592525 -33.007357 9.711611 7.870636 -7.571521 -0.039128 0.078930 0.000000 0.000000 0.000000 -78.766261 -11.016953 -4.976095 62.424152 -3.134963 0.491213 -9.880851 4.554697 5.306233 -0.849592 -0.108233 0.259839 0.000000 0.000001 -0.000000 
13.384483 72.881836 15.296459 25.541813 -10.890123 -1.216532 8.509546 -0.901857 0.759797 17.009548 -2.220420 0.636262 17.009556 -2.220422 0.636262 7.802219 0.878112 -2.261321 9.747109 0.886326 13.246378 -0.000000 -0.000001 0.000002 -0.331748 -12.533979 -17.276210 -46.373545 -32.006512 -53.272224 0.005019 -29.373345 0.041977 14.583398 5.244536 -7.816796 -5.074905 4.014867 6.962776 4.661613 10.456746 1.283692 0.000011 -0.000010 -0.000000 -0.000005 0.000000 0.000000 -3.167047 -4.770129 -20.490501 0.133842 0.898432 -25.940312 -0.000001 -0.000000 0.000001 -0.000001 0.000002 -0.000000 0.058173 5.368549 -18.447943 -0.353026 -1.497197 -19.360917 0.000000 -0.000008 0.000007 -0.000001 0.000000 -0.000001 0.925792 7.744099 -31.570958 -0.748314 -3.330747 -29.179917 -0.000004 0.000009 -0.000004 0.000001 0.000000 -0.000003 -1.282978 7.016372 -23.415169 -1.336039 -6.409076 -29.330591 -0.000001 -0.000001 -0.000000 0.000001 0.000002 -0.000002 1.065629 15.349248 3.465156 -37.540960 20.840888 55.064428 0.020911 37.559763 -0.089203 34.441345 3.685281 15.376882 -3.762293 -1.796967 -11.056131 -1.259655 -0.359946 -1.486016 0.000011 0.000022 -0.000006 0.000003 -0.000000 -0.000002 -0.822611 -5.040400 -0.018749 0.152269 -1.219408 19.669574 0.000000 -0.000000 -0.000000 0.000001 0.000001 -0.000001 0.403782 -7.702433 14.224040 -0.510136 1.453091 25.673716 -0.000002 0.000005 -0.000001 0.000000 0.000004 -0.000006 3.421885 -11.217226 21.844362 -1.740649 4.778610 38.566356 0.000001 -0.000001 0.000001 -0.000001 -0.000001 0.000001 1.820644 -16.346886 27.318407 -4.478442 10.378828 48.716440 -0.000000 0.000000 0.000001 0.000000 -0.000000 0.000002 -62.329287 3.176754 3.875450 66.003758 -1.038507 -2.509286 -30.516746 8.173920 7.349120 -7.588910 -0.039119 0.078982 -0.000000 -0.000000 -0.000000 -74.958212 -12.670903 -5.664588 59.416007 -3.418477 0.212134 -10.379943 5.032923 8.768676 -0.781244 -0.108355 0.260040 -0.000000 0.000000 -0.000000 
13.273291 74.941963 15.043102 24.189567 -10.130578 -2.471785 8.137121 -0.960679 0.669998 16.264147 -2.340548 0.515952 16.264156 -2.340544 0.515946 8.022944 0.875741 -2.078250 11.555922 0.219211 13.622879 -0.000000 -0.000000 0.000001 -0.423188 -12.771407 -17.960906 -41.099973 -30.675134 -50.696458 0.002070 -29.208597 0.041762 12.121863 6.506564 -7.989535 -5.231328 3.711071 7.121320 4.310162 9.912499 1.446892 0.000014 -0.000010 0.000001 -0.000003 0.000001 -0.000000 -2.057377 -4.287443 -12.186602 0.079803 0.851836 -22.516379 0.000002 0.000001 0.000001 -0.000001 0.000000 -0.000002 -0.114166 5.483641 -13.770142 -0.309230 -1.359727 -17.645567 -0.000005 -0.000008 0.000010 0.000002 0.000003 0.000003 1.195321 8.523998 -30.131366 -0.733340 -3.307593 -28.955815 -0.000005 0.000004 -0.000005 -0.000000 0.000003 -0.000002 -1.396429 6.979334 -22.493712 -1.323718 -6.409704 -29.358366 -0.000001 0.000003 0.000003 0.000002 -0.000001 -0.000000 1.143293 15.125522 3.099071 -35.353561 20.570153 56.997372 0.016139 37.921125 -0.087337 34.391024 3.897398 15.727381 -3.729657 -1.879242 -11.054302 -1.240260 -0.350817 -1.483944 0.000014 0.000022 -0.000007 0.000004 0.000000 -0.000002 -0.804520 -5.167490 0.116502 0.142512 -1.203594 19.220740 0.000000 -0.000001 -0.000001 0.000002 0.000000 -0.000000 0.391549 -7.734728 13.984590 -0.499826 1.432413 25.371047 -0.000000 0.000004 0.000001 -0.000000 0.000001 0.000001 3.336282 -11.191877 21.426326 -1.669780 4.708321 37.761076 0.000001 -0.000001 0.000002 -0.000002 0.000001 -0.000001 1.754591 -16.472239 26.813081 -4.377133 10.334211 48.220316 -0.000000 0.000003 0.000001 -0.000001 0.000002 0.000000 -59.834759 2.843147 4.690900 62.830193 -0.967927 -2.404699 -28.414716 7.012084 6.863001 -7.610453 -0.039054 0.079061 -0.000001 -0.000000 -0.000000 -70.285536 -13.834513 -5.895726 56.627241 -3.031168 0.326275 -11.377248 2.626936 10.042572 -0.925154 -0.108106 0.259636 -0.000000 0.000001 -0.000001 
